solid MCE_hashioki
facet normal -0.0 -0.0 1.0
  outer loop
    vertex 135.44228799553056 90.22630492319719 12.70000000000001
    vertex 129.09228799553057 102.9263049231972 12.70000000000001
    vertex 129.09228799553057 90.22630492319719 12.70000000000001
  endloop
endfacet
facet normal -0.0 -0.0 1.0
  outer loop
    vertex 129.09228799553057 102.9263049231972 12.70000000000001
    vertex 135.44228799553056 90.22630492319719 12.70000000000001
    vertex 135.44228799553056 102.9263049231972 12.70000000000001
  endloop
endfacet
facet normal 1.0 1.6434602192104182e-32 -5.921189464667502e-16
  outer loop
    vertex 135.44228799553056 102.9263049231972 1.127986593019159e-14
    vertex 135.44228799553056 90.22630492319719 12.70000000000001
    vertex 135.44228799553056 90.22630492319719 1.127986593019159e-14
  endloop
endfacet
facet normal 1.0 1.6434602192104182e-32 -5.921189464667502e-16
  outer loop
    vertex 135.44228799553056 90.22630492319719 12.70000000000001
    vertex 135.44228799553056 102.9263049231972 1.127986593019159e-14
    vertex 135.44228799553056 102.9263049231972 12.70000000000001
  endloop
endfacet
facet normal 4.440892098500626e-16 2.220446049250313e-16 -1.0
  outer loop
    vertex 135.44228799553056 102.9263049231972 1.127986593019159e-14
    vertex 129.09228799553057 90.22630492319719 5.639932965095795e-15
    vertex 129.09228799553057 102.9263049231972 1.127986593019159e-14
  endloop
endfacet
facet normal 4.440892098500626e-16 2.220446049250313e-16 -1.0
  outer loop
    vertex 129.09228799553057 90.22630492319719 5.639932965095795e-15
    vertex 135.44228799553056 102.9263049231972 1.127986593019159e-14
    vertex 135.44228799553056 90.22630492319719 1.127986593019159e-14
  endloop
endfacet
facet normal -0.0 -0.0 1.0
  outer loop
    vertex 103.69228799553056 90.22630492319719 12.70000000000001
    vertex 97.34228799553055 102.9263049231972 12.70000000000001
    vertex 97.34228799553055 90.22630492319719 12.70000000000001
  endloop
endfacet
facet normal -0.0 -0.0 1.0
  outer loop
    vertex 97.34228799553055 102.9263049231972 12.70000000000001
    vertex 103.69228799553056 90.22630492319719 12.70000000000001
    vertex 103.69228799553056 102.9263049231972 12.70000000000001
  endloop
endfacet
facet normal -4.440892098500626e-16 -2.220446049250313e-16 -1.0
  outer loop
    vertex 103.69228799553056 102.9263049231972 5.639932965095795e-15
    vertex 97.34228799553055 90.22630492319719 1.127986593019159e-14
    vertex 97.34228799553055 102.9263049231972 1.127986593019159e-14
  endloop
endfacet
facet normal -4.440892098500626e-16 -2.220446049250313e-16 -1.0
  outer loop
    vertex 97.34228799553055 90.22630492319719 1.127986593019159e-14
    vertex 103.69228799553056 102.9263049231972 5.639932965095795e-15
    vertex 103.69228799553056 90.22630492319719 1.127986593019159e-14
  endloop
endfacet
facet normal -0.0408184337791244 1.2186752595270104e-15 0.9991665804378265
  outer loop
    vertex 115.2916185984731 93.35633984752701 3.1300349243298293
    vertex 114.19094920141562 99.84123507453755 3.085069848659644
    vertex 114.19094920141562 93.31137477185683 3.0850698486596526
  endloop
endfacet
facet normal -0.0408184337791244 1.2186752595270104e-15 0.9991665804378265
  outer loop
    vertex 114.19094920141562 99.84123507453755 3.085069848659644
    vertex 115.2916185984731 93.35633984752701 3.1300349243298293
    vertex 116.39228799553055 99.7513049231972 3.174999999999999
  endloop
endfacet
facet normal -0.0408184337791244 1.2186752595270104e-15 0.9991665804378265
  outer loop
    vertex 116.39228799553055 99.7513049231972 3.174999999999999
    vertex 115.2916185984731 93.35633984752701 3.1300349243298293
    vertex 116.39228799553055 93.40130492319719 3.175000000000007
  endloop
endfacet
facet normal -0.2819331885003987 1.1618860505780782e-15 0.959434040057991
  outer loop
    vertex 109.84685781486253 92.59552564586933 2.369220722672153
    vertex 107.73305675893788 101.17823234273223 1.7480725804649666
    vertex 107.73305675893788 91.97437750366215 1.7480725804649777
  endloop
endfacet
facet normal -0.2819331885003987 1.1618860505780782e-15 0.959434040057991
  outer loop
    vertex 107.73305675893788 101.17823234273223 1.7480725804649666
    vertex 109.84685781486253 92.59552564586933 2.369220722672153
    vertex 109.84685781486253 100.55708420052505 2.3692207226721433
  endloop
endfacet
facet normal -0.43417977275386593 7.576065904900023e-16 0.9008262456941413
  outer loop
    vertex 105.67696582626273 91.18287892806862 0.9565740048714354
    vertex 103.69228799553056 102.9263049231972 5.639932965095795e-15
    vertex 103.69228799553056 90.22630492319719 1.127986593019159e-14
  endloop
endfacet
facet normal -0.43417977275386593 7.576065904900023e-16 0.9008262456941413
  outer loop
    vertex 103.69228799553056 102.9263049231972 5.639932965095795e-15
    vertex 105.67696582626273 91.18287892806862 0.9565740048714354
    vertex 105.67696582626273 101.96973091832578 0.9565740048714204
  endloop
endfacet
facet normal -1.0 0.0 0.0
  outer loop
    vertex 97.34228799553055 102.9263049231972 12.70000000000001
    vertex 97.34228799553055 90.22630492319719 1.127986593019159e-14
    vertex 97.34228799553055 90.22630492319719 12.70000000000001
  endloop
endfacet
facet normal -1.0 0.0 0.0
  outer loop
    vertex 97.34228799553055 90.22630492319719 1.127986593019159e-14
    vertex 97.34228799553055 102.9263049231972 12.70000000000001
    vertex 97.34228799553055 102.9263049231972 1.127986593019159e-14
  endloop
endfacet
facet normal -0.1221832636957026 -1.1123197708443964e-16 0.9925075566829034
  outer loop
    vertex 120.78029458934407 93.04218366435697 9.884121258840246
    vertex 118.5936267896455 99.84123507453755 9.614930151340365
    vertex 118.5936267896455 93.31137477185683 9.614930151340365
  endloop
endfacet
facet normal -0.1221832636957026 -1.1123197708443964e-16 0.9925075566829034
  outer loop
    vertex 118.5936267896455 99.84123507453755 9.614930151340365
    vertex 120.78029458934407 93.04218366435697 9.884121258840246
    vertex 120.78029458934405 100.11042618203743 9.884121258840246
  endloop
endfacet
facet normal 0.4341797727538682 1.3087121773803336e-18 0.9008262456941404
  outer loop
    vertex 105.67696582626273 91.18287892806862 11.743425995128586
    vertex 103.69228799553056 102.9263049231972 12.70000000000001
    vertex 103.69228799553056 90.22630492319719 12.70000000000001
  endloop
endfacet
facet normal 0.4341797727538682 1.3087121773803336e-18 0.9008262456941404
  outer loop
    vertex 103.69228799553056 102.9263049231972 12.70000000000001
    vertex 105.67696582626273 91.18287892806862 11.743425995128586
    vertex 105.67696582626273 101.96973091832578 11.743425995128586
  endloop
endfacet
facet normal -0.0 1.0 -0.0
  outer loop
    vertex 97.34228799553055 102.9263049231972 1.127986593019159e-14
    vertex 103.69228799553056 102.9263049231972 12.70000000000001
    vertex 103.69228799553056 102.9263049231972 5.639932965095795e-15
  endloop
endfacet
facet normal -0.0 1.0 -0.0
  outer loop
    vertex 103.69228799553056 102.9263049231972 12.70000000000001
    vertex 97.34228799553055 102.9263049231972 1.127986593019159e-14
    vertex 97.34228799553055 102.9263049231972 12.70000000000001
  endloop
endfacet
facet normal 0.12218326369570229 0.9925075566829034 -1.0643880380261313e-15
  outer loop
    vertex 118.5936267896455 93.31137477185683 3.0850698486596526
    vertex 120.78029458934407 93.04218366435697 9.884121258840246
    vertex 120.78029458934405 93.04218366435695 2.8158787411597723
  endloop
endfacet
facet normal 0.12218326369570229 0.9925075566829034 -1.0643880380261313e-15
  outer loop
    vertex 120.78029458934407 93.04218366435697 9.884121258840246
    vertex 118.5936267896455 93.31137477185683 3.0850698486596526
    vertex 118.5936267896455 93.31137477185683 9.614930151340365
  endloop
endfacet
facet normal -0.4341797727538671 0.9008262456941407 1.3087121773800268e-19
  outer loop
    vertex 103.69228799553056 90.22630492319719 12.70000000000001
    vertex 105.67696582626273 91.18287892806862 0.9565740048714354
    vertex 103.69228799553056 90.22630492319719 1.127986593019159e-14
  endloop
endfacet
facet normal -0.4341797727538671 0.9008262456941407 1.3087121773800268e-19
  outer loop
    vertex 105.67696582626273 91.18287892806862 0.9565740048714354
    vertex 103.69228799553056 90.22630492319719 12.70000000000001
    vertex 105.67696582626273 91.18287892806862 11.743425995128586
  endloop
endfacet
facet normal -0.35925361753103874 1.2156915832124717e-15 0.9332399682240694
  outer loop
    vertex 107.73305675893788 91.97437750366215 1.7480725804649777
    vertex 105.67696582626273 101.96973091832578 0.9565740048714204
    vertex 105.67696582626273 91.18287892806862 0.9565740048714354
  endloop
endfacet
facet normal -0.35925361753103874 1.2156915832124717e-15 0.9332399682240694
  outer loop
    vertex 105.67696582626273 101.96973091832578 0.9565740048714204
    vertex 107.73305675893788 91.97437750366215 1.7480725804649777
    vertex 107.73305675893788 101.17823234273223 1.7480725804649666
  endloop
endfacet
facet normal -0.20273379370340605 1.1968529567584908e-15 0.9792338887572392
  outer loop
    vertex 112.00428140171707 93.04218366435697 2.8158787411597666
    vertex 109.84685781486253 100.55708420052505 2.3692207226721433
    vertex 109.84685781486253 92.59552564586933 2.369220722672153
  endloop
endfacet
facet normal -0.20273379370340605 1.1968529567584908e-15 0.9792338887572392
  outer loop
    vertex 109.84685781486253 100.55708420052505 2.3692207226721433
    vertex 112.00428140171707 93.04218366435697 2.8158787411597666
    vertex 112.00428140171707 100.11042618203741 2.815878741159758
  endloop
endfacet
facet normal -0.1221832636957055 1.2085640445372859e-15 0.9925075566829029
  outer loop
    vertex 114.19094920141562 93.31137477185683 3.0850698486596526
    vertex 112.00428140171707 100.11042618203741 2.815878741159758
    vertex 112.00428140171707 93.04218366435697 2.8158787411597666
  endloop
endfacet
facet normal -0.1221832636957055 1.2085640445372859e-15 0.9925075566829029
  outer loop
    vertex 112.00428140171707 100.11042618203741 2.815878741159758
    vertex 114.19094920141562 93.31137477185683 3.0850698486596526
    vertex 114.19094920141562 99.84123507453755 3.085069848659644
  endloop
endfacet
facet normal 0.04081843377912444 1.2851411402619728e-15 0.9991665804378265
  outer loop
    vertex 118.5936267896455 93.31137477185683 3.0850698486596526
    vertex 116.39228799553055 99.7513049231972 3.174999999999999
    vertex 116.39228799553055 93.40130492319719 3.175000000000007
  endloop
endfacet
facet normal 0.04081843377912444 1.2851411402619728e-15 0.9991665804378265
  outer loop
    vertex 116.39228799553055 99.7513049231972 3.174999999999999
    vertex 118.5936267896455 93.31137477185683 3.0850698486596526
    vertex 118.5936267896455 99.84123507453755 3.085069848659644
  endloop
endfacet
facet normal 0.12218326369570291 1.2340548494468777e-15 0.9925075566829034
  outer loop
    vertex 120.78029458934405 93.04218366435695 2.8158787411597723
    vertex 118.5936267896455 99.84123507453755 3.085069848659644
    vertex 118.5936267896455 93.31137477185683 3.0850698486596526
  endloop
endfacet
facet normal 0.12218326369570291 1.2340548494468777e-15 0.9925075566829034
  outer loop
    vertex 118.5936267896455 99.84123507453755 3.085069848659644
    vertex 120.78029458934405 93.04218366435695 2.8158787411597723
    vertex 120.78029458934405 100.11042618203743 2.815878741159764
  endloop
endfacet
facet normal 0.20273379370341088 1.1699343891681182e-15 0.979233888757238
  outer loop
    vertex 122.93771817619859 92.59552564586934 2.3692207226721473
    vertex 120.78029458934405 100.11042618203743 2.815878741159764
    vertex 120.78029458934405 93.04218366435695 2.8158787411597723
  endloop
endfacet
facet normal 0.20273379370341088 1.1699343891681182e-15 0.979233888757238
  outer loop
    vertex 120.78029458934405 100.11042618203743 2.815878741159764
    vertex 122.93771817619859 92.59552564586934 2.3692207226721473
    vertex 122.93771817619859 100.55708420052504 2.369220722672138
  endloop
endfacet
facet normal 0.2819331885003988 1.14557251788666e-15 0.959434040057991
  outer loop
    vertex 125.05151923212324 91.97437750366217 1.748072580464972
    vertex 122.93771817619859 100.55708420052504 2.369220722672138
    vertex 122.93771817619859 92.59552564586934 2.3692207226721473
  endloop
endfacet
facet normal 0.2819331885003988 1.14557251788666e-15 0.959434040057991
  outer loop
    vertex 122.93771817619859 100.55708420052504 2.369220722672138
    vertex 125.05151923212324 91.97437750366217 1.748072580464972
    vertex 125.05151923212324 101.17823234273222 1.748072580464961
  endloop
endfacet
facet normal 0.35925361753103774 1.206175279672674e-15 0.93323996822407
  outer loop
    vertex 127.10761016479839 91.18287892806862 0.9565740048714324
    vertex 125.05151923212324 101.17823234273222 1.748072580464961
    vertex 125.05151923212324 91.97437750366217 1.748072580464972
  endloop
endfacet
facet normal 0.35925361753103774 1.206175279672674e-15 0.93323996822407
  outer loop
    vertex 125.05151923212324 101.17823234273222 1.748072580464961
    vertex 127.10761016479839 91.18287892806862 0.9565740048714324
    vertex 127.10761016479839 101.96973091832575 0.9565740048714176
  endloop
endfacet
facet normal 0.4341797727538649 2.8817143423825825e-16 0.9008262456941418
  outer loop
    vertex 129.09228799553057 90.22630492319719 5.639932965095795e-15
    vertex 127.10761016479839 101.96973091832575 0.9565740048714176
    vertex 127.10761016479839 91.18287892806862 0.9565740048714324
  endloop
endfacet
facet normal 0.4341797727538649 2.8817143423825825e-16 0.9008262456941418
  outer loop
    vertex 127.10761016479839 101.96973091832575 0.9565740048714176
    vertex 129.09228799553057 90.22630492319719 5.639932965095795e-15
    vertex 129.09228799553057 102.9263049231972 1.127986593019159e-14
  endloop
endfacet
facet normal -0.35925361753103946 0.9332399682240692 -4.844974576418233e-16
  outer loop
    vertex 105.67696582626273 91.18287892806862 11.743425995128586
    vertex 107.73305675893788 91.97437750366215 1.7480725804649777
    vertex 105.67696582626273 91.18287892806862 0.9565740048714354
  endloop
endfacet
facet normal -0.35925361753103946 0.9332399682240692 -4.844974576418233e-16
  outer loop
    vertex 107.73305675893788 91.97437750366215 1.7480725804649777
    vertex 105.67696582626273 91.18287892806862 11.743425995128586
    vertex 107.73305675893788 91.97437750366217 10.951927419535043
  endloop
endfacet
facet normal 0.3592536175310383 1.9996674726143708e-18 0.9332399682240696
  outer loop
    vertex 107.73305675893788 91.97437750366217 10.951927419535043
    vertex 105.67696582626273 101.96973091832578 11.743425995128586
    vertex 105.67696582626273 91.18287892806862 11.743425995128586
  endloop
endfacet
facet normal 0.3592536175310383 1.9996674726143708e-18 0.9332399682240696
  outer loop
    vertex 105.67696582626273 101.96973091832578 11.743425995128586
    vertex 107.73305675893788 91.97437750366217 10.951927419535043
    vertex 107.73305675893788 101.17823234273223 10.951927419535043
  endloop
endfacet
facet normal -0.2819331885003988 0.959434040057991 -1.2510221320532154e-15
  outer loop
    vertex 107.73305675893788 91.97437750366217 10.951927419535043
    vertex 109.84685781486253 92.59552564586933 2.369220722672153
    vertex 107.73305675893788 91.97437750366215 1.7480725804649777
  endloop
endfacet
facet normal -0.2819331885003988 0.959434040057991 -1.2510221320532154e-15
  outer loop
    vertex 109.84685781486253 92.59552564586933 2.369220722672153
    vertex 107.73305675893788 91.97437750366217 10.951927419535043
    vertex 109.84685781486253 92.59552564586934 10.330779277327865
  endloop
endfacet
facet normal 0.2819331885003988 1.8126147434915463e-18 0.959434040057991
  outer loop
    vertex 109.84685781486253 92.59552564586934 10.330779277327865
    vertex 107.73305675893788 101.17823234273223 10.951927419535043
    vertex 107.73305675893788 91.97437750366217 10.951927419535043
  endloop
endfacet
facet normal 0.2819331885003988 1.8126147434915463e-18 0.959434040057991
  outer loop
    vertex 107.73305675893788 101.17823234273223 10.951927419535043
    vertex 109.84685781486253 92.59552564586934 10.330779277327865
    vertex 109.84685781486253 100.55708420052505 10.330779277327865
  endloop
endfacet
facet normal -0.20273379370340855 0.9792338887572387 -8.660447114125651e-17
  outer loop
    vertex 109.84685781486253 92.59552564586934 10.330779277327865
    vertex 112.00428140171707 93.04218366435697 2.8158787411597666
    vertex 109.84685781486253 92.59552564586933 2.369220722672153
  endloop
endfacet
facet normal -0.20273379370340855 0.9792338887572387 -8.660447114125651e-17
  outer loop
    vertex 112.00428140171707 93.04218366435697 2.8158787411597666
    vertex 109.84685781486253 92.59552564586934 10.330779277327865
    vertex 112.00428140171707 93.04218366435695 9.884121258840251
  endloop
endfacet
facet normal 0.20273379370340605 -5.359070187642445e-19 0.9792338887572392
  outer loop
    vertex 112.00428140171707 93.04218366435695 9.884121258840251
    vertex 109.84685781486253 100.55708420052505 10.330779277327865
    vertex 109.84685781486253 92.59552564586934 10.330779277327865
  endloop
endfacet
facet normal 0.20273379370340605 -5.359070187642445e-19 0.9792338887572392
  outer loop
    vertex 109.84685781486253 100.55708420052505 10.330779277327865
    vertex 112.00428140171707 93.04218366435695 9.884121258840251
    vertex 112.00428140171707 100.11042618203741 9.884121258840251
  endloop
endfacet
facet normal -0.1221832636957029 0.9925075566829034 8.531922349152772e-16
  outer loop
    vertex 112.00428140171707 93.04218366435695 9.884121258840251
    vertex 114.19094920141562 93.31137477185683 3.0850698486596526
    vertex 112.00428140171707 93.04218366435697 2.8158787411597666
  endloop
endfacet
facet normal -0.1221832636957029 0.9925075566829034 8.531922349152772e-16
  outer loop
    vertex 114.19094920141562 93.31137477185683 3.0850698486596526
    vertex 112.00428140171707 93.04218366435695 9.884121258840251
    vertex 114.19094920141562 93.31137477185683 9.614930151340365
  endloop
endfacet
facet normal 0.12218326369570541 4.999344996378154e-19 0.9925075566829029
  outer loop
    vertex 114.19094920141562 93.31137477185683 9.614930151340365
    vertex 112.00428140171707 100.11042618203741 9.884121258840251
    vertex 112.00428140171707 93.04218366435695 9.884121258840251
  endloop
endfacet
facet normal 0.12218326369570541 4.999344996378154e-19 0.9925075566829029
  outer loop
    vertex 112.00428140171707 100.11042618203741 9.884121258840251
    vertex 114.19094920141562 93.31137477185683 9.614930151340365
    vertex 114.19094920141562 99.84123507453755 9.614930151340365
  endloop
endfacet
facet normal -0.04081843377911957 0.9991665804378265 -1.2766217640139964e-19
  outer loop
    vertex 114.19094920141562 93.31137477185683 9.614930151340365
    vertex 115.2916185984731 93.35633984752701 3.1300349243298293
    vertex 114.19094920141562 93.31137477185683 3.0850698486596526
  endloop
endfacet
facet normal -0.04081843377911957 0.9991665804378265 -1.2766217640139964e-19
  outer loop
    vertex 115.2916185984731 93.35633984752701 3.1300349243298293
    vertex 114.19094920141562 93.31137477185683 9.614930151340365
    vertex 115.2916185984731 93.35633984752701 9.569965075670188
  endloop
endfacet
facet normal 0.040818433779124697 7.569848329415308e-18 0.9991665804378265
  outer loop
    vertex 115.2916185984731 93.35633984752701 9.569965075670188
    vertex 114.19094920141562 99.84123507453755 9.614930151340365
    vertex 114.19094920141562 93.31137477185683 9.614930151340365
  endloop
endfacet
facet normal 0.040818433779124697 7.569848329415308e-18 0.9991665804378265
  outer loop
    vertex 114.19094920141562 99.84123507453755 9.614930151340365
    vertex 115.2916185984731 93.35633984752701 9.569965075670188
    vertex 116.39228799553055 99.7513049231972 9.525000000000011
  endloop
endfacet
facet normal 0.040818433779124697 7.569848329415308e-18 0.9991665804378265
  outer loop
    vertex 116.39228799553055 99.7513049231972 9.525000000000011
    vertex 115.2916185984731 93.35633984752701 9.569965075670188
    vertex 116.39228799553055 93.40130492319719 9.525000000000011
  endloop
endfacet
facet normal -0.040818433779129776 0.9991665804378262 -1.3842494368833295e-16
  outer loop
    vertex 115.2916185984731 93.35633984752701 9.569965075670188
    vertex 116.39228799553055 93.40130492319719 3.175000000000007
    vertex 115.2916185984731 93.35633984752701 3.1300349243298293
  endloop
endfacet
facet normal -0.040818433779129776 0.9991665804378262 -1.3842494368833295e-16
  outer loop
    vertex 116.39228799553055 93.40130492319719 3.175000000000007
    vertex 115.2916185984731 93.35633984752701 9.569965075670188
    vertex 116.39228799553055 93.40130492319719 9.525000000000011
  endloop
endfacet
facet normal 0.04081843377912468 0.9991665804378265 1.6235541162672574e-19
  outer loop
    vertex 116.39228799553055 93.40130492319719 3.175000000000007
    vertex 118.5936267896455 93.31137477185683 9.614930151340365
    vertex 118.5936267896455 93.31137477185683 3.0850698486596526
  endloop
endfacet
facet normal 0.04081843377912468 0.9991665804378265 1.6235541162672574e-19
  outer loop
    vertex 118.5936267896455 93.31137477185683 9.614930151340365
    vertex 116.39228799553055 93.40130492319719 3.175000000000007
    vertex 116.39228799553055 93.40130492319719 9.525000000000011
  endloop
endfacet
facet normal -0.04081843377912436 1.1120198657134084e-16 0.9991665804378265
  outer loop
    vertex 118.5936267896455 93.31137477185683 9.614930151340365
    vertex 116.39228799553055 99.7513049231972 9.525000000000011
    vertex 116.39228799553055 93.40130492319719 9.525000000000011
  endloop
endfacet
facet normal -0.04081843377912436 1.1120198657134084e-16 0.9991665804378265
  outer loop
    vertex 116.39228799553055 99.7513049231972 9.525000000000011
    vertex 118.5936267896455 93.31137477185683 9.614930151340365
    vertex 118.5936267896455 99.84123507453755 9.614930151340365
  endloop
endfacet
facet normal 0.20273379370340855 0.9792338887572387 -5.211050683955262e-16
  outer loop
    vertex 120.78029458934405 93.04218366435695 2.8158787411597723
    vertex 122.9377181761986 92.59552564586933 10.330779277327872
    vertex 122.93771817619859 92.59552564586934 2.3692207226721473
  endloop
endfacet
facet normal 0.20273379370340855 0.9792338887572387 -5.211050683955262e-16
  outer loop
    vertex 122.9377181761986 92.59552564586933 10.330779277327872
    vertex 120.78029458934405 93.04218366435695 2.8158787411597723
    vertex 120.78029458934407 93.04218366435697 9.884121258840246
  endloop
endfacet
facet normal -0.202733793703411 -6.05595174304662e-16 0.979233888757238
  outer loop
    vertex 120.78029458934407 93.04218366435697 9.884121258840246
    vertex 122.93771817619859 100.55708420052504 10.330779277327872
    vertex 120.78029458934405 100.11042618203743 9.884121258840246
  endloop
endfacet
facet normal -0.202733793703411 -6.05595174304662e-16 0.979233888757238
  outer loop
    vertex 122.93771817619859 100.55708420052504 10.330779277327872
    vertex 120.78029458934407 93.04218366435697 9.884121258840246
    vertex 122.9377181761986 92.59552564586933 10.330779277327872
  endloop
endfacet
facet normal 0.28193318850040017 0.9594340400579906 9.100351865259323e-16
  outer loop
    vertex 122.93771817619859 92.59552564586934 2.3692207226721473
    vertex 125.05151923212324 91.97437750366215 10.95192741953505
    vertex 125.05151923212324 91.97437750366217 1.748072580464972
  endloop
endfacet
facet normal 0.28193318850040017 0.9594340400579906 9.100351865259323e-16
  outer loop
    vertex 125.05151923212324 91.97437750366215 10.95192741953505
    vertex 122.93771817619859 92.59552564586934 2.3692207226721473
    vertex 122.9377181761986 92.59552564586933 10.330779277327872
  endloop
endfacet
facet normal -0.2819331885004004 -2.575115278058669e-16 0.9594340400579905
  outer loop
    vertex 122.9377181761986 92.59552564586933 10.330779277327872
    vertex 125.05151923212324 101.17823234273222 10.951927419535048
    vertex 122.93771817619859 100.55708420052504 10.330779277327872
  endloop
endfacet
facet normal -0.2819331885004004 -2.575115278058669e-16 0.9594340400579905
  outer loop
    vertex 125.05151923212324 101.17823234273222 10.951927419535048
    vertex 122.9377181761986 92.59552564586933 10.330779277327872
    vertex 125.05151923212324 91.97437750366215 10.95192741953505
  endloop
endfacet
facet normal 0.35925361753103946 0.9332399682240692 4.88496792587051e-16
  outer loop
    vertex 125.05151923212324 91.97437750366217 1.748072580464972
    vertex 127.10761016479839 91.18287892806862 11.743425995128588
    vertex 127.10761016479839 91.18287892806862 0.9565740048714324
  endloop
endfacet
facet normal 0.35925361753103946 0.9332399682240692 4.88496792587051e-16
  outer loop
    vertex 127.10761016479839 91.18287892806862 11.743425995128588
    vertex 125.05151923212324 91.97437750366217 1.748072580464972
    vertex 125.05151923212324 91.97437750366215 10.95192741953505
  endloop
endfacet
facet normal -0.3592536175310372 -1.0389148598845452e-17 0.93323996822407
  outer loop
    vertex 127.10761016479839 91.18287892806862 11.743425995128588
    vertex 125.05151923212324 101.17823234273222 10.951927419535048
    vertex 125.05151923212324 91.97437750366215 10.95192741953505
  endloop
endfacet
facet normal -0.3592536175310372 -1.0389148598845452e-17 0.93323996822407
  outer loop
    vertex 125.05151923212324 101.17823234273222 10.951927419535048
    vertex 127.10761016479839 91.18287892806862 11.743425995128588
    vertex 127.10761016479839 101.96973091832575 11.74342599512859
  endloop
endfacet
facet normal 0.4341797727538671 0.9008262456941407 -5.234848709521651e-19
  outer loop
    vertex 127.10761016479839 91.18287892806862 0.9565740048714324
    vertex 129.09228799553057 90.22630492319719 12.70000000000001
    vertex 129.09228799553057 90.22630492319719 5.639932965095795e-15
  endloop
endfacet
facet normal 0.4341797727538671 0.9008262456941407 -5.234848709521651e-19
  outer loop
    vertex 129.09228799553057 90.22630492319719 12.70000000000001
    vertex 127.10761016479839 91.18287892806862 0.9565740048714324
    vertex 127.10761016479839 91.18287892806862 11.743425995128588
  endloop
endfacet
facet normal -0.4341797727538669 -4.8513970238031264e-17 0.9008262456941409
  outer loop
    vertex 129.09228799553057 90.22630492319719 12.70000000000001
    vertex 127.10761016479839 101.96973091832575 11.74342599512859
    vertex 127.10761016479839 91.18287892806862 11.743425995128588
  endloop
endfacet
facet normal -0.4341797727538669 -4.8513970238031264e-17 0.9008262456941409
  outer loop
    vertex 127.10761016479839 101.96973091832575 11.74342599512859
    vertex 129.09228799553057 90.22630492319719 12.70000000000001
    vertex 129.09228799553057 102.9263049231972 12.70000000000001
  endloop
endfacet
facet normal -0.0 1.0 -0.0
  outer loop
    vertex 129.09228799553057 102.9263049231972 12.70000000000001
    vertex 135.44228799553056 102.9263049231972 1.127986593019159e-14
    vertex 129.09228799553057 102.9263049231972 1.127986593019159e-14
  endloop
endfacet
facet normal -0.0 1.0 -0.0
  outer loop
    vertex 135.44228799553056 102.9263049231972 1.127986593019159e-14
    vertex 129.09228799553057 102.9263049231972 12.70000000000001
    vertex 135.44228799553056 102.9263049231972 12.70000000000001
  endloop
endfacet
facet normal 0.4341797727538712 -0.9008262456941389 -3.6015172200806114e-18
  outer loop
    vertex 129.09228799553057 102.9263049231972 12.70000000000001
    vertex 127.10761016479839 101.96973091832575 0.9565740048714176
    vertex 129.09228799553057 102.9263049231972 1.127986593019159e-14
  endloop
endfacet
facet normal 0.4341797727538712 -0.9008262456941389 -3.6015172200806114e-18
  outer loop
    vertex 127.10761016479839 101.96973091832575 0.9565740048714176
    vertex 129.09228799553057 102.9263049231972 12.70000000000001
    vertex 127.10761016479839 101.96973091832575 11.74342599512859
  endloop
endfacet
facet normal -0.3592536175310372 0.93323996822407 -1.381592718133217e-19
  outer loop
    vertex 125.05151923212324 101.17823234273222 1.748072580464961
    vertex 127.10761016479839 101.96973091832575 11.74342599512859
    vertex 127.10761016479839 101.96973091832575 0.9565740048714176
  endloop
endfacet
facet normal -0.3592536175310372 0.93323996822407 -1.381592718133217e-19
  outer loop
    vertex 127.10761016479839 101.96973091832575 11.74342599512859
    vertex 125.05151923212324 101.17823234273222 1.748072580464961
    vertex 125.05151923212324 101.17823234273222 10.951927419535048
  endloop
endfacet
facet normal 0.28193318850039917 -0.959434040057991 -4.2016769646749418e-19
  outer loop
    vertex 125.05151923212324 101.17823234273222 10.951927419535048
    vertex 122.93771817619859 100.55708420052504 2.369220722672138
    vertex 125.05151923212324 101.17823234273222 1.748072580464961
  endloop
endfacet
facet normal 0.28193318850039917 -0.959434040057991 -4.2016769646749418e-19
  outer loop
    vertex 122.93771817619859 100.55708420052504 2.369220722672138
    vertex 125.05151923212324 101.17823234273222 10.951927419535048
    vertex 122.93771817619859 100.55708420052504 10.330779277327872
  endloop
endfacet
facet normal 0.20273379370340364 -0.9792338887572397 -1.8906598021005518e-18
  outer loop
    vertex 122.93771817619859 100.55708420052504 10.330779277327872
    vertex 120.78029458934405 100.11042618203743 2.815878741159764
    vertex 122.93771817619859 100.55708420052504 2.369220722672138
  endloop
endfacet
facet normal 0.20273379370340364 -0.9792338887572397 -1.8906598021005518e-18
  outer loop
    vertex 120.78029458934405 100.11042618203743 2.815878741159764
    vertex 122.93771817619859 100.55708420052504 10.330779277327872
    vertex 120.78029458934405 100.11042618203743 9.884121258840246
  endloop
endfacet
facet normal 0.12218326369570516 -0.9925075566829031 -1.0355169786842192e-16
  outer loop
    vertex 120.78029458934405 100.11042618203743 9.884121258840246
    vertex 118.5936267896455 99.84123507453755 3.085069848659644
    vertex 120.78029458934405 100.11042618203743 2.815878741159764
  endloop
endfacet
facet normal 0.12218326369570516 -0.9925075566829031 -1.0355169786842192e-16
  outer loop
    vertex 118.5936267896455 99.84123507453755 3.085069848659644
    vertex 120.78029458934405 100.11042618203743 9.884121258840246
    vertex 118.5936267896455 99.84123507453755 9.614930151340365
  endloop
endfacet
facet normal 0.04081843377912468 -0.9991665804378265 -4.753690105837924e-19
  outer loop
    vertex 118.5936267896455 99.84123507453755 9.614930151340365
    vertex 116.39228799553055 99.7513049231972 3.174999999999999
    vertex 118.5936267896455 99.84123507453755 3.085069848659644
  endloop
endfacet
facet normal 0.04081843377912468 -0.9991665804378265 -4.753690105837924e-19
  outer loop
    vertex 116.39228799553055 99.7513049231972 3.174999999999999
    vertex 118.5936267896455 99.84123507453755 9.614930151340365
    vertex 116.39228799553055 99.7513049231972 9.525000000000011
  endloop
endfacet
facet normal -0.04081843377912468 -0.9991665804378265 -2.5888105899578624e-19
  outer loop
    vertex 116.39228799553055 99.7513049231972 3.174999999999999
    vertex 114.19094920141562 99.84123507453755 9.614930151340365
    vertex 114.19094920141562 99.84123507453755 3.085069848659644
  endloop
endfacet
facet normal -0.04081843377912468 -0.9991665804378265 -2.5888105899578624e-19
  outer loop
    vertex 114.19094920141562 99.84123507453755 9.614930151340365
    vertex 116.39228799553055 99.7513049231972 3.174999999999999
    vertex 116.39228799553055 99.7513049231972 9.525000000000011
  endloop
endfacet
facet normal -0.1221832636957012 -0.9925075566829036 -3.0266979516889957e-18
  outer loop
    vertex 114.19094920141562 99.84123507453755 3.085069848659644
    vertex 112.00428140171707 100.11042618203741 9.884121258840251
    vertex 112.00428140171707 100.11042618203741 2.815878741159758
  endloop
endfacet
facet normal -0.1221832636957012 -0.9925075566829036 -3.0266979516889957e-18
  outer loop
    vertex 112.00428140171707 100.11042618203741 9.884121258840251
    vertex 114.19094920141562 99.84123507453755 3.085069848659644
    vertex 114.19094920141562 99.84123507453755 9.614930151340365
  endloop
endfacet
facet normal 0.20273379370341402 0.9792338887572374 5.2868726583124655e-17
  outer loop
    vertex 109.84685781486253 100.55708420052505 10.330779277327865
    vertex 112.00428140171707 100.11042618203741 2.815878741159758
    vertex 109.84685781486253 100.55708420052505 2.3692207226721433
  endloop
endfacet
facet normal 0.20273379370341402 0.9792338887572374 5.2868726583124655e-17
  outer loop
    vertex 112.00428140171707 100.11042618203741 2.815878741159758
    vertex 109.84685781486253 100.55708420052505 10.330779277327865
    vertex 112.00428140171707 100.11042618203741 9.884121258840251
  endloop
endfacet
facet normal 0.2819331885003989 0.959434040057991 4.746729894919757e-17
  outer loop
    vertex 107.73305675893788 101.17823234273223 10.951927419535043
    vertex 109.84685781486253 100.55708420052505 2.3692207226721433
    vertex 107.73305675893788 101.17823234273223 1.7480725804649666
  endloop
endfacet
facet normal 0.2819331885003989 0.959434040057991 4.746729894919757e-17
  outer loop
    vertex 109.84685781486253 100.55708420052505 2.3692207226721433
    vertex 107.73305675893788 101.17823234273223 10.951927419535043
    vertex 109.84685781486253 100.55708420052505 10.330779277327865
  endloop
endfacet
facet normal -0.3592536175310417 -0.9332399682240684 -6.603255374181688e-19
  outer loop
    vertex 107.73305675893788 101.17823234273223 1.7480725804649666
    vertex 105.67696582626273 101.96973091832578 11.743425995128586
    vertex 105.67696582626273 101.96973091832578 0.9565740048714204
  endloop
endfacet
facet normal -0.3592536175310417 -0.9332399682240684 -6.603255374181688e-19
  outer loop
    vertex 105.67696582626273 101.96973091832578 11.743425995128586
    vertex 107.73305675893788 101.17823234273223 1.7480725804649666
    vertex 107.73305675893788 101.17823234273223 10.951927419535043
  endloop
endfacet
facet normal -0.4341797727538628 -0.9008262456941427 -2.622911969886045e-16
  outer loop
    vertex 105.67696582626273 101.96973091832578 0.9565740048714204
    vertex 103.69228799553056 102.9263049231972 12.70000000000001
    vertex 103.69228799553056 102.9263049231972 5.639932965095795e-15
  endloop
endfacet
facet normal -0.4341797727538628 -0.9008262456941427 -2.622911969886045e-16
  outer loop
    vertex 103.69228799553056 102.9263049231972 12.70000000000001
    vertex 105.67696582626273 101.96973091832578 0.9565740048714204
    vertex 105.67696582626273 101.96973091832578 11.743425995128586
  endloop
endfacet
facet normal 0.0 -1.0 0.0
  outer loop
    vertex 103.69228799553056 90.22630492319719 12.70000000000001
    vertex 97.34228799553055 90.22630492319719 1.127986593019159e-14
    vertex 103.69228799553056 90.22630492319719 1.127986593019159e-14
  endloop
endfacet
facet normal 0.0 -1.0 0.0
  outer loop
    vertex 97.34228799553055 90.22630492319719 1.127986593019159e-14
    vertex 103.69228799553056 90.22630492319719 12.70000000000001
    vertex 97.34228799553055 90.22630492319719 12.70000000000001
  endloop
endfacet
facet normal 0.0 -1.0 0.0
  outer loop
    vertex 135.44228799553056 90.22630492319719 1.127986593019159e-14
    vertex 129.09228799553057 90.22630492319719 12.70000000000001
    vertex 129.09228799553057 90.22630492319719 5.639932965095795e-15
  endloop
endfacet
facet normal 0.0 -1.0 0.0
  outer loop
    vertex 129.09228799553057 90.22630492319719 12.70000000000001
    vertex 135.44228799553056 90.22630492319719 1.127986593019159e-14
    vertex 135.44228799553056 90.22630492319719 12.70000000000001
  endloop
endfacet
endsolid MCE_hashioki
